<?xml version="1.0" encoding="UTF-8" standalone="no"?>
<!DOCTYPE svg PUBLIC "-//W3C//DTD SVG 1.1//EN" "http://www.w3.org/Graphics/SVG/1.1/DTD/svg11.dtd">
<svg width="57.96" height="61.44" viewBox="0.00 0.00 483.00 512.00" xmlns="http://www.w3.org/2000/svg" xmlns:xlink="http://www.w3.org/1999/xlink">
<g stroke-linecap="round" transform="translate(-994.00, -750.00)" id="Layer_2">
<path d="M1045.83,1003.54 C1047.24,999.51 1054.25,990.09 1060.29,983.42 C1068.45,974.69 1094.72,949.09 1104.71,940.14 C1116.69,929.79 1141.15,909.64 1153.08,899.97 C1165.83,889.99 1183.64,877.76 1201.10,866.63 C1212.78,859.32 1234.29,847.47 1252.45,838.26 C1267.99,830.57 1298.86,816.42 1311.62,811.59 C1320.12,808.56 1331.97,805.24 1342.96,802.79 C1348.17,801.72 1354.24,800.85 1357.60,801.07 C1360.64,801.29 1368.78,803.28 1371.00,804.28 C1373.71,805.54 1380.17,810.25 1382.55,812.61 C1387.47,817.56 1395.77,829.76 1398.76,836.09 C1401.59,842.13 1407.54,856.89 1409.12,862.60 C1410.38,867.21 1414.15,884.15 1415.72,891.52 C1418.83,907.79 1421.80,932.89 1423.51,952.82 C1424.26,961.72 1424.47,971.60 1423.71,980.16 C1423.09,986.95 1421.62,1002.01 1420.62,1010.15 C1419.00,1020.91 1416.07,1034.95 1414.28,1041.49 C1408.90,1060.03 1398.39,1091.25 1395.17,1099.18 C1389.26,1113.15 1376.18,1139.59 1366.86,1155.34 C1363.67,1160.62 1353.74,1174.98 1350.20,1179.10 C1345.34,1184.72 1333.87,1194.43 1326.85,1198.85 C1320.80,1202.64 1307.86,1208.92 1302.17,1210.32 C1296.03,1211.79 1284.69,1212.81 1273.26,1213.05 C1268.73,1213.11 1250.12,1212.45 1243.27,1211.20 C1235.56,1209.76 1221.67,1205.63 1214.40,1202.53 C1209.96,1200.62 1193.33,1192.19 1186.60,1188.24 C1169.86,1178.08 1144.84,1160.43 1135.99,1153.62 C1132.51,1150.88 1118.66,1138.72 1115.24,1135.27 C1108.52,1128.45 1083.03,1098.86 1072.78,1086.31 C1059.16,1068.93 1052.40,1057.03 1048.47,1049.22 C1047.10,1046.48 1043.91,1037.12 1043.91,1037.11 C1043.32,1036.12 1041.70,1033.58 1041.95,1031.97 C1042.86,1026.66 1046.82,1016.21 1048.10,1014.80 C1048.88,1013.93 1051.52,1011.39 1052.55,1010.41" fill="none" stroke="rgb(0, 0, 0)" stroke-width="100.00" stroke-opacity="1.00" stroke-linejoin="round"/>
<path d="M1045.83,1013.15 C1045.83,1013.15 1041.98,1009.30 1041.98,1009.30 C1041.98,1009.30 1043.91,1013.15 1043.91,1013.15" fill="none" stroke="rgb(0, 0, 0)" stroke-width="100.00" stroke-opacity="1.00" stroke-linejoin="round"/>
</g>
</svg>
